<svg xmlns="http://www.w3.org/2000/svg" viewBox="0 0 612 612"><defs><style>.cls-1{fill:#fff;}</style></defs><title>facebook</title><g id="Layer_2" data-name="Layer 2"><g id="Capa_1" data-name="Capa 1"><path class="cls-1" d="M612,306C612,137,475,0,306,0S0,137,0,306,137,612,306,612,612,475,612,306ZM27.82,306C27.82,152.36,152.36,27.82,306,27.82S584.18,152.36,584.18,306,459.64,584.18,306,584.18,27.82,459.64,27.82,306Z"/><path class="cls-1" d="M315.12,444.89V305.81H361l7.25-46.09H315.12V236.62c0-12,3.94-23.5,21.2-23.5h34.5v-46h-49c-41.18,0-52.42,27.12-52.42,64.71V259.7H241.17v46.11h28.26V444.89Z"/></g></g></svg>