<svg xmlns="http://www.w3.org/2000/svg" viewBox="0 0 612 612"><defs><style>.cls-1{fill:#fff;}</style></defs><title>instagram</title><g id="Layer_2" data-name="Layer 2"><g id="Capa_1" data-name="Capa 1"><path class="cls-1" d="M612,306C612,137,475,0,306,0S0,137,0,306,137,612,306,612,612,475,612,306ZM27.82,306C27.82,152.36,152.36,27.82,306,27.82S584.18,152.36,584.18,306,459.64,584.18,306,584.18,27.82,459.64,27.82,306Z"/><path class="cls-1" d="M357.87,167.69H254.13a86.45,86.45,0,0,0-86.44,86.44V357.87a86.45,86.45,0,0,0,86.44,86.44H357.87a86.45,86.45,0,0,0,86.44-86.44V254.13A86.45,86.45,0,0,0,357.87,167.69Zm60.51,190.17a60.58,60.58,0,0,1-60.51,60.51H254.13a60.58,60.58,0,0,1-60.51-60.51V254.13a60.58,60.58,0,0,1,60.51-60.51H357.87a60.58,60.58,0,0,1,60.51,60.51Z"/><path class="cls-1" d="M306,236.85A69.15,69.15,0,1,0,375.15,306,69.16,69.16,0,0,0,306,236.85Zm0,112.38A43.22,43.22,0,1,1,349.22,306,43.28,43.28,0,0,1,306,349.22Z"/><circle class="cls-1" cx="380.34" cy="231.66" r="9.21"/></g></g></svg>