<svg xmlns="http://www.w3.org/2000/svg" xmlns:xlink="http://www.w3.org/1999/xlink" viewBox="0 0 81.94 96.16"><defs><style>.cls-1{fill:url(#linear-gradient);}</style><linearGradient id="linear-gradient" x1="16.79" y1="20.08" x2="82.05" y2="69.64" gradientUnits="userSpaceOnUse"><stop offset="0" stop-color="#edcc43"/><stop offset="0.15" stop-color="#faed4d"/><stop offset="0.32" stop-color="#fffdc5"/><stop offset="0.42" stop-color="#fcf483"/><stop offset="0.59" stop-color="#edcc43"/><stop offset="0.75" stop-color="#fffbbb"/><stop offset="0.84" stop-color="#fbed5e"/><stop offset="1" stop-color="#f2d964"/></linearGradient></defs><title>Logo_icon</title><g id="Layer_2" data-name="Layer 2"><g id="Layer_1-2" data-name="Layer 1"><path class="cls-1" d="M81.94,0C75.17.41,67.17,8.76,66.69,9.23c0-2.11,3.22-6.79,3.22-6.79C63.48,3.35,58.73,8,58.58,14a38.93,38.93,0,0,0,1.33,10.82c1.75,6.57,4.06,13,6,19.51A41.69,41.69,0,0,1,67.76,61c-1.34,12.57-10,23.51-21.53,27A31.09,31.09,0,0,1,12.74,77.39C-1.93,58.49,4.52,32.22,28.23,24.75a48.65,48.65,0,0,1,7.21-1.26V78.77H40V21.55H52.81V17.47H40V0h-4.6V17.47H21.14v4.09h8.8c-2.52.54-4.87,1.16-5.09,1.24C7.86,28.92-1.79,44.45.27,62.36,2.31,80,17.16,94.58,34.16,96c23,1.94,43-16.13,43.27-40.25.1-8.68-1.55-17.43-2.92-26.07C72.81,19,69.75,10.06,81.94,0Z"/></g></g></svg>