<svg xmlns="http://www.w3.org/2000/svg" xmlns:xlink="http://www.w3.org/1999/xlink" viewBox="0 0 319.65 82.92"><defs><style>.cls-1{fill:url(#linear-gradient);}.cls-2{fill:url(#linear-gradient-2);}.cls-3{fill:url(#linear-gradient-3);}.cls-4{fill:url(#linear-gradient-4);}.cls-5{fill:url(#linear-gradient-5);}.cls-6{fill:url(#linear-gradient-6);}.cls-7{fill:url(#linear-gradient-7);}.cls-8{fill:url(#linear-gradient-8);}.cls-9{fill:url(#linear-gradient-9);}.cls-10{fill:url(#linear-gradient-10);}.cls-11{fill:url(#linear-gradient-11);}.cls-12{fill:url(#linear-gradient-12);}.cls-13{fill:url(#linear-gradient-13);}.cls-14{fill:#f5e266;}</style><linearGradient id="linear-gradient" x1="10.7" y1="23.6" x2="11.26" y2="69.17" gradientUnits="userSpaceOnUse"><stop offset="0.03" stop-color="#edcc43"/><stop offset="0.32" stop-color="#faed4d"/><stop offset="0.47" stop-color="#efd245"/><stop offset="0.6" stop-color="#fff17f"/><stop offset="0.7" stop-color="#fbed5e"/><stop offset="1" stop-color="#f4dd48"/></linearGradient><linearGradient id="linear-gradient-2" x1="34.11" y1="23.31" x2="34.67" y2="68.89" xlink:href="#linear-gradient"/><linearGradient id="linear-gradient-3" x1="59.27" y1="23.01" x2="59.83" y2="68.58" xlink:href="#linear-gradient"/><linearGradient id="linear-gradient-4" x1="82.64" y1="22.72" x2="83.2" y2="68.3" xlink:href="#linear-gradient"/><linearGradient id="linear-gradient-5" x1="101.19" y1="22.5" x2="101.75" y2="68.07" xlink:href="#linear-gradient"/><linearGradient id="linear-gradient-6" x1="116.79" y1="22.31" x2="117.34" y2="67.88" xlink:href="#linear-gradient"/><linearGradient id="linear-gradient-7" x1="136.36" y1="22.07" x2="136.92" y2="67.64" xlink:href="#linear-gradient"/><linearGradient id="linear-gradient-8" x1="218.19" y1="21.07" x2="218.75" y2="66.64" xlink:href="#linear-gradient"/><linearGradient id="linear-gradient-9" x1="239.65" y1="20.81" x2="240.21" y2="66.38" xlink:href="#linear-gradient"/><linearGradient id="linear-gradient-10" x1="264.98" y1="20.5" x2="265.54" y2="66.07" xlink:href="#linear-gradient"/><linearGradient id="linear-gradient-11" x1="287.97" y1="20.22" x2="288.52" y2="65.79" xlink:href="#linear-gradient"/><linearGradient id="linear-gradient-12" x1="307.3" y1="19.98" x2="307.86" y2="65.56" xlink:href="#linear-gradient"/><linearGradient id="linear-gradient-13" x1="163.84" y1="13.18" x2="206.67" y2="45.7" gradientUnits="userSpaceOnUse"><stop offset="0" stop-color="#edcc43"/><stop offset="0.15" stop-color="#faed4d"/><stop offset="0.32" stop-color="#fffdc5"/><stop offset="0.42" stop-color="#fcf483"/><stop offset="0.59" stop-color="#edcc43"/><stop offset="0.75" stop-color="#fffbbb"/><stop offset="0.84" stop-color="#fbed5e"/><stop offset="1" stop-color="#f2d964"/></linearGradient></defs><title>logo_ru_1</title><g id="Layer_2" data-name="Layer 2"><g id="Layer_1-2" data-name="Layer 1"><path class="cls-1" d="M19.33,49.94H.29V24.25H2.86V47.53H14.75V24.25h2.57V47.53h4.4v6.25H19.33Z"/><path class="cls-2" d="M44.16,30.94v19H41.75V46.67a10.48,10.48,0,0,1-3.45,2.81,9.63,9.63,0,0,1-11.07-2,9.81,9.81,0,0,1-2.85-7.12,9.63,9.63,0,0,1,2.88-7,9.39,9.39,0,0,1,6.93-2.92,9,9,0,0,1,4.23,1,9.64,9.64,0,0,1,3.33,3V30.94Zm-9.77,1.87a7.37,7.37,0,0,0-6.51,3.82,7.7,7.7,0,0,0,0,7.67,7.49,7.49,0,0,0,2.76,2.85,7.22,7.22,0,0,0,3.72,1,7.63,7.63,0,0,0,3.8-1,7.08,7.08,0,0,0,2.76-2.74,7.82,7.82,0,0,0,1-3.89A7.56,7.56,0,0,0,39.73,35,7.19,7.19,0,0,0,34.39,32.81Z"/><path class="cls-3" d="M49.69,30.94h2.44v3.49a9.81,9.81,0,0,1,3.33-3,8.86,8.86,0,0,1,4.2-1,9.38,9.38,0,0,1,6.92,2.92,9.63,9.63,0,0,1,2.88,7,9.81,9.81,0,0,1-2.85,7.12,9.6,9.6,0,0,1-11.05,2,10.5,10.5,0,0,1-3.44-2.81V56.89H49.69Zm9.78,1.87A7.18,7.18,0,0,0,54.13,35,7.56,7.56,0,0,0,52,40.53a7.82,7.82,0,0,0,1,3.89,7.05,7.05,0,0,0,2.77,2.74,7.66,7.66,0,0,0,3.81,1,7.18,7.18,0,0,0,3.7-1A7.49,7.49,0,0,0,66,44.3a7.7,7.7,0,0,0,0-7.67,7.36,7.36,0,0,0-6.51-3.82Z"/><path class="cls-4" d="M92.49,34.88l-1.94,1.2a8.12,8.12,0,0,0-6.85-3.33A7.93,7.93,0,0,0,77.93,35a7.29,7.29,0,0,0-2.29,5.42,7.7,7.7,0,0,0,1.05,3.91,7.4,7.4,0,0,0,2.9,2.84,8.76,8.76,0,0,0,11-2.32l1.94,1.27a9.15,9.15,0,0,1-3.66,3.18,11.69,11.69,0,0,1-5.23,1.13,10.33,10.33,0,0,1-7.47-2.86,9.32,9.32,0,0,1-3-7,10,10,0,0,1,1.39-5.13,9.78,9.78,0,0,1,3.82-3.69,11.13,11.13,0,0,1,5.43-1.33,11.59,11.59,0,0,1,3.64.58,10.12,10.12,0,0,1,3,1.5A8.17,8.17,0,0,1,92.49,34.88Z"/><path class="cls-5" d="M95.06,30.94h12.5v2.11h-5V49.94h-2.44V33.05h-5Z"/><path class="cls-6" d="M116.4,49.94h-5.52v-19h5.43q3.11,0,4.48,1.43a4.68,4.68,0,0,1,1.37,3.35,3.86,3.86,0,0,1-2.55,3.92,5,5,0,0,1,3.7,5.05Q123.31,49.94,116.4,49.94Zm-3.07-16.89V39h1.59a14.17,14.17,0,0,0,2.84-.17,2.52,2.52,0,0,0,1.25-.86,2.71,2.71,0,0,0,.59-1.82,3.17,3.17,0,0,0-.61-2,2.28,2.28,0,0,0-1.29-.94,17.19,17.19,0,0,0-2.78-.14Zm0,8.17v6.65h2.63a10.43,10.43,0,0,0,2.65-.24,2.59,2.59,0,0,0,1.37-1,3.31,3.31,0,0,0,.57-2,3.25,3.25,0,0,0-1-2.48,3.62,3.62,0,0,0-2.59-.93Z"/><path class="cls-7" d="M136.6,30.45a9.41,9.41,0,0,1,7.28,3.18,10.2,10.2,0,0,1-.15,13.82,10,10,0,0,1-14.27,0,10.18,10.18,0,0,1-.15-13.8A9.41,9.41,0,0,1,136.6,30.45Zm0,2.39a7.05,7.05,0,0,0-5.24,2.25,7.53,7.53,0,0,0-2.19,5.45,7.73,7.73,0,0,0,1,3.84,7.07,7.07,0,0,0,2.7,2.75,7.67,7.67,0,0,0,7.46,0,7.07,7.07,0,0,0,2.7-2.75,7.73,7.73,0,0,0,1-3.84,7.51,7.51,0,0,0-2.2-5.45A7.06,7.06,0,0,0,136.59,32.84Z"/><path class="cls-8" d="M210.81,49.94V24.25h12.87v2.51H213.34V35h1.2a20.82,20.82,0,0,1,7,.85,7.2,7.2,0,0,1,3.42,2.67,7.17,7.17,0,0,1-1,9.21,8.25,8.25,0,0,1-6.13,2.22Zm2.53-12.36v9.85h3.16a11.38,11.38,0,0,0,4.12-.55,4.64,4.64,0,0,0,2.09-1.69,4.45,4.45,0,0,0,.78-2.56,4.39,4.39,0,0,0-1.1-3A5.19,5.19,0,0,0,219.64,38a22.51,22.51,0,0,0-4.87-.39Z"/><path class="cls-9" d="M239.9,30.45a9.41,9.41,0,0,1,7.28,3.18A10.2,10.2,0,0,1,247,47.45a10,10,0,0,1-14.27,0,10.18,10.18,0,0,1-.15-13.8A9.41,9.41,0,0,1,239.9,30.45Zm0,2.39a7.05,7.05,0,0,0-5.24,2.25,7.53,7.53,0,0,0-2.19,5.45,7.73,7.73,0,0,0,1,3.84,7.07,7.07,0,0,0,2.7,2.75,7.67,7.67,0,0,0,7.46,0,7.07,7.07,0,0,0,2.7-2.75,7.73,7.73,0,0,0,1-3.84,7.51,7.51,0,0,0-2.2-5.45A7.06,7.06,0,0,0,239.89,32.84Z"/><path class="cls-10" d="M264.07,30.94h2.48v8.41l9.08-8.41h3l-9,8.47,9.66,10.53h-3.13l-8.23-9.18-1.4,1.17v8h-2.48v-8l-1.36-1.17-8.17,9.18h-3.15l9.54-10.54-8.82-8.45h3l9,8.39Z"/><path class="cls-11" d="M284.25,38.46h2.32a17,17,0,0,1,4.35.44,5.09,5.09,0,0,1,2.71,1.93,5.73,5.73,0,0,1-.51,7.44,6.7,6.7,0,0,1-5,1.67h-6.32v-19h2.43Zm.09,2.23v7.18h2.81q5,0,5-3.49a4,4,0,0,0-.53-2A2.89,2.89,0,0,0,290,41.08a11.55,11.55,0,0,0-3.61-.38Z"/><path class="cls-12" d="M314.67,43.63l2.06,1.08a11.22,11.22,0,0,1-2.34,3.21,9.3,9.3,0,0,1-3,1.86,10.43,10.43,0,0,1-3.76.64,9.08,9.08,0,0,1-7.27-3,10.28,10.28,0,0,1-2.62-6.89A10.15,10.15,0,0,1,300,34a9.07,9.07,0,0,1,7.53-3.6,9.37,9.37,0,0,1,7.76,3.68,10.29,10.29,0,0,1,2.1,6.5H300.26a7.73,7.73,0,0,0,2.12,5.43,6.75,6.75,0,0,0,5.05,2.12,8.12,8.12,0,0,0,2.82-.5,7.43,7.43,0,0,0,2.33-1.34A11.39,11.39,0,0,0,314.67,43.63Zm0-5.12a8.11,8.11,0,0,0-1.42-3.13,6.74,6.74,0,0,0-2.47-1.89,7.58,7.58,0,0,0-3.23-.72,7,7,0,0,0-4.81,1.8,8.13,8.13,0,0,0-2.22,3.93Z"/><path class="cls-13" d="M206.6,0c-4.45.27-9.69,5.75-10,6.06,0-1.39,2.11-4.46,2.11-4.46-4.23.59-7.34,3.67-7.44,7.61a25.55,25.55,0,0,0,.87,7.1c1.15,4.31,2.67,8.53,4,12.8A27.36,27.36,0,0,1,197.29,40c-.88,8.25-6.57,15.43-14.13,17.7a20.4,20.4,0,0,1-22-6.94c-9.63-12.4-5.4-29.64,10.17-34.55a31.93,31.93,0,0,1,4.73-.83V51.7h3V14.15h8.38V11.46H179.1V0h-3V11.46H166.7v2.68h5.78c-1.65.36-3.2.76-3.34.81a23.94,23.94,0,0,0-16.13,26c1.33,11.6,11.08,21.15,22.24,22.09,15.09,1.27,28.22-10.59,28.4-26.42.06-5.7-1-11.44-1.92-17.11C200.61,12.46,198.6,6.6,206.6,0Z"/><path class="cls-14" d="M9.27,79.32h-2L4.58,74.94l-2.7,4.38H0l3.55-5.55L.23,68.61H2.18l2.48,4.05,2.48-4.05H9L5.67,73.79Z"/><path class="cls-14" d="M22.38,79.46A2.84,2.84,0,0,1,20,78.36h-.1q.1,1,.1,1.25v3.32H18.27V71.22h1.39q.06.23.24,1.08H20a2.7,2.7,0,0,1,2.42-1.23,2.81,2.81,0,0,1,2.36,1.1,6,6,0,0,1,0,6.18A2.84,2.84,0,0,1,22.38,79.46Zm-.42-7a1.79,1.79,0,0,0-1.5.6A3.12,3.12,0,0,0,20,75v.26a3.79,3.79,0,0,0,.47,2.14,1.74,1.74,0,0,0,1.53.66,1.55,1.55,0,0,0,1.38-.73,3.78,3.78,0,0,0,.48-2.09,3.66,3.66,0,0,0-.48-2.06A1.6,1.6,0,0,0,22,72.48Z"/><path class="cls-14" d="M37,71.22v4.15q0,.73-.12,2.13L41,71.22h2.1v8.1H41.4V75.24q0-.34,0-1.09t.07-1.1l-4.05,6.27h-2.1v-8.1Z"/><path class="cls-14" d="M56.52,79.46a3.54,3.54,0,0,1-2.79-1.07,5.44,5.44,0,0,1,0-6.22,3.71,3.71,0,0,1,2.89-1.1,5.42,5.42,0,0,1,2.31.48l-.52,1.38a5.21,5.21,0,0,0-1.8-.42q-2.1,0-2.1,2.79a3.34,3.34,0,0,0,.52,2A1.81,1.81,0,0,0,56.6,78a4.4,4.4,0,0,0,2.18-.57V79a3.4,3.4,0,0,1-1,.39A5.91,5.91,0,0,1,56.52,79.46Z"/><path class="cls-14" d="M74.5,71.22v1.35H71.87v6.75H70.14V72.56H67.5V71.22Z"/><path class="cls-14" d="M85.45,71.22v4.15q0,.73-.12,2.13l4.06-6.28h2.1v8.1H89.85V75.24c0-.22,0-.59,0-1.09s0-.87.07-1.1l-4,6.27H83.8v-8.1Z"/><path class="cls-14" d="M106.76,79.32l-.34-1.13h-.06a3.31,3.31,0,0,1-1.18,1,3.72,3.72,0,0,1-1.52.27,2.58,2.58,0,0,1-1.86-.64,2.41,2.41,0,0,1-.67-1.82,2.14,2.14,0,0,1,.93-1.89,5.36,5.36,0,0,1,2.83-.7l1.4,0v-.43a1.64,1.64,0,0,0-.36-1.16,1.48,1.48,0,0,0-1.12-.38,3.89,3.89,0,0,0-1.19.18,9,9,0,0,0-1.1.43L102,71.77a6,6,0,0,1,1.44-.52,6.67,6.67,0,0,1,1.48-.18,3.51,3.51,0,0,1,2.33.67,2.64,2.64,0,0,1,.79,2.12v5.46Zm-2.56-1.17a2.13,2.13,0,0,0,1.5-.52,1.9,1.9,0,0,0,.57-1.47v-.7l-1,0a3.56,3.56,0,0,0-1.77.41,1.24,1.24,0,0,0-.55,1.11,1.08,1.08,0,0,0,.32.84A1.38,1.38,0,0,0,104.2,78.15Z"/><path class="cls-14" d="M119.86,71.22v3.25h3.82V71.22h1.72v8.1h-1.72V75.82h-3.82v3.49h-1.72v-8.1Z"/><path class="cls-14" d="M138.86,79.46a3.54,3.54,0,0,1-2.79-1.07,5.44,5.44,0,0,1,0-6.22,3.71,3.71,0,0,1,2.89-1.1,5.42,5.42,0,0,1,2.31.48l-.52,1.38a5.21,5.21,0,0,0-1.8-.42q-2.1,0-2.1,2.79a3.34,3.34,0,0,0,.52,2,1.81,1.81,0,0,0,1.53.68,4.4,4.4,0,0,0,2.18-.57V79a3.4,3.4,0,0,1-1,.39A5.91,5.91,0,0,1,138.86,79.46Z"/><path class="cls-14" d="M155.79,71.22h1.89l-3.35,3.9,3.63,4.2h-2l-3.5-4.11v4.11h-1.72v-8.1h1.72v3.93Z"/><path class="cls-14" d="M172.1,79.32l-.34-1.13h-.06a3.31,3.31,0,0,1-1.18,1,3.72,3.72,0,0,1-1.52.27,2.58,2.58,0,0,1-1.86-.64,2.41,2.41,0,0,1-.67-1.82,2.14,2.14,0,0,1,.93-1.89,5.36,5.36,0,0,1,2.83-.7l1.4,0v-.43a1.64,1.64,0,0,0-.36-1.16,1.48,1.48,0,0,0-1.12-.38,3.89,3.89,0,0,0-1.19.18,9,9,0,0,0-1.1.43l-.56-1.23a6,6,0,0,1,1.44-.52,6.67,6.67,0,0,1,1.48-.18,3.51,3.51,0,0,1,2.33.67,2.64,2.64,0,0,1,.79,2.12v5.46Zm-2.56-1.17a2.13,2.13,0,0,0,1.5-.52,1.9,1.9,0,0,0,.57-1.47v-.7l-1,0a3.56,3.56,0,0,0-1.77.41,1.24,1.24,0,0,0-.55,1.11,1.08,1.08,0,0,0,.32.84A1.38,1.38,0,0,0,169.54,78.15Z"/><path class="cls-14" d="M184.3,79.32h-1.93L184.63,76a2.42,2.42,0,0,1-1.29-.84,2.37,2.37,0,0,1-.47-1.5,2.16,2.16,0,0,1,.82-1.8,3.52,3.52,0,0,1,2.24-.65h3.69v8.1H187.9V76.2h-1.63Zm.25-5.64a1,1,0,0,0,.47.93,2.28,2.28,0,0,0,1.27.31h1.6v-2.4H186a1.73,1.73,0,0,0-1.09.3A1,1,0,0,0,184.55,73.68Z"/><path class="cls-14" d="M218.68,78h1.17v4.18h-1.62V79.32h-6.77v-8.1h1.72V78H217V71.22h1.72Z"/><path class="cls-14" d="M232.6,79.46a3.92,3.92,0,0,1-3-1.1,4.18,4.18,0,0,1-1.07-3,4.59,4.59,0,0,1,1-3.12,3.42,3.42,0,0,1,2.72-1.14,3.34,3.34,0,0,1,2.53,1,3.72,3.72,0,0,1,.93,2.68v.93h-5.4a2.66,2.66,0,0,0,.64,1.81,2.22,2.22,0,0,0,1.69.63A6.22,6.22,0,0,0,234,78a7,7,0,0,0,1.33-.45v1.4a5.28,5.28,0,0,1-1.27.42A7.82,7.82,0,0,1,232.6,79.46Zm-.31-7.09a1.73,1.73,0,0,0-1.31.52,2.47,2.47,0,0,0-.59,1.52h3.68a2.24,2.24,0,0,0-.48-1.52A1.65,1.65,0,0,0,232.29,72.37Z"/><path class="cls-14" d="M249.55,79.46a2.84,2.84,0,0,1-2.39-1.11h-.1q.1,1,.1,1.25v3.32h-1.72V71.22h1.39q.06.23.24,1.08h.09a2.7,2.7,0,0,1,2.42-1.23,2.81,2.81,0,0,1,2.36,1.1,6,6,0,0,1,0,6.18A2.84,2.84,0,0,1,249.55,79.46Zm-.42-7a1.79,1.79,0,0,0-1.5.6,3.12,3.12,0,0,0-.47,1.92v.26a3.79,3.79,0,0,0,.47,2.14,1.74,1.74,0,0,0,1.53.66,1.55,1.55,0,0,0,1.38-.73,3.78,3.78,0,0,0,.48-2.09,3.66,3.66,0,0,0-.48-2.06A1.6,1.6,0,0,0,249.14,72.48Z"/><path class="cls-14" d="M267.56,71.22h1.89l-3.35,3.9,3.63,4.2h-2l-3.5-4.11v4.11h-1.72v-8.1h1.72v3.93Z"/><path class="cls-14" d="M286,75.25a4.42,4.42,0,0,1-1,3.1,3.65,3.65,0,0,1-2.83,1.11,3.88,3.88,0,0,1-2-.51,3.38,3.38,0,0,1-1.34-1.47,5,5,0,0,1-.47-2.23,4.39,4.39,0,0,1,1-3.08,3.66,3.66,0,0,1,2.85-1.11A3.57,3.57,0,0,1,285,72.2,4.37,4.37,0,0,1,286,75.25Zm-5.9,0q0,2.81,2.07,2.8t2.05-2.8q0-2.78-2.07-2.78a1.76,1.76,0,0,0-1.57.72A3.65,3.65,0,0,0,280.09,75.25Z"/><path class="cls-14" d="M302.74,73.29q0,1.44-1.68,1.74v.06a2.4,2.4,0,0,1,1.44.59,1.67,1.67,0,0,1,.5,1.25,2,2,0,0,1-.87,1.77,4.38,4.38,0,0,1-2.54.62h-3.87v-8.1h3.85Q302.74,71.22,302.74,73.29Zm-1.72.15a.75.75,0,0,0-.38-.7,2.32,2.32,0,0,0-1.12-.22h-2.09v1.95h1.83a3,3,0,0,0,1.31-.22A.82.82,0,0,0,301,73.44Zm.21,3.39a.87.87,0,0,0-.45-.83,3,3,0,0,0-1.36-.25h-2V78h2Q301.23,78,301.23,76.83Z"/><path class="cls-14" d="M314.23,74.45h2q3.39,0,3.39,2.34a2.19,2.19,0,0,1-.86,1.88,4.2,4.2,0,0,1-2.53.64h-3.75v-8.1h1.72Zm3.69,2.39a.88.88,0,0,0-.46-.85,2.86,2.86,0,0,0-1.3-.24h-1.93V78h2a2.26,2.26,0,0,0,1.29-.31A1,1,0,0,0,317.92,76.84Z"/></g></g></svg>