<?xml version="1.0" encoding="utf-8"?>
<!-- Generator: Adobe Illustrator 21.1.0, SVG Export Plug-In . SVG Version: 6.00 Build 0)  -->
<svg version="1.1" id="Capa_1" xmlns="http://www.w3.org/2000/svg" xmlns:xlink="http://www.w3.org/1999/xlink" x="0px" y="0px"
	 viewBox="0 0 612 612" style="enable-background:new 0 0 612 612;" xml:space="preserve">
<style type="text/css">
	.st0{fill:#FFFFFF;}
</style>
<path class="st0" d="M-729.3,305.7c0-169-137-306-306-306c-169,0-306,137-306,306c0,169,137,306,306,306
	C-866.3,611.7-729.3,474.7-729.3,305.7z M-1313.4,305.7c0-153.6,124.5-278.2,278.2-278.2s278.2,124.5,278.2,278.2
	s-124.5,278.2-278.2,278.2S-1313.4,459.4-1313.4,305.7z"/>
<path class="st0" d="M-1026.1,444.6V305.5h45.9l7.3-46.1h-53.1v-23.1c0-12,3.9-23.5,21.2-23.5h34.5v-46h-49
	c-41.2,0-52.4,27.1-52.4,64.7v27.9h-28.3v46.1h28.3v139.1H-1026.1L-1026.1,444.6z"/>
<path class="st0" d="M-64.3,306c0-169-137-306-306-306c-169,0-306,137-306,306c0,169,137,306,306,306C-201.4,612-64.3,475-64.3,306z
	 M-648.5,306c0-153.6,124.5-278.2,278.2-278.2S-92.2,152.4-92.2,306s-124.5,278.2-278.2,278.2S-648.5,459.7-648.5,306z"/>
<g>
	<g>
		<g>
			<path class="st0" d="M-318.5,167.7h-103.7c-47.7,0-86.4,38.7-86.4,86.4v103.7c0,47.7,38.7,86.4,86.4,86.4h103.7
				c47.7,0,86.4-38.7,86.4-86.4V254.2C-232,206.4-270.7,167.7-318.5,167.7z M-258,357.9c0,33.4-27.1,60.5-60.5,60.5h-103.7
				c-33.4,0-60.5-27.1-60.5-60.5V254.2c0-33.4,27.1-60.5,60.5-60.5h103.7c33.4,0,60.5,27.1,60.5,60.5V357.9z"/>
		</g>
	</g>
	<g>
		<g>
			<path class="st0" d="M-370.3,236.9c-38.2,0-69.2,31-69.2,69.2s31,69.2,69.2,69.2s69.2-31,69.2-69.2S-332.2,236.9-370.3,236.9z
				 M-370.3,349.2c-23.8,0-43.2-19.4-43.2-43.2c0-23.8,19.4-43.2,43.2-43.2s43.2,19.4,43.2,43.2
				C-327.1,329.8-346.5,349.2-370.3,349.2z"/>
		</g>
	</g>
	<g>
		<g>
			<circle class="st0" cx="-296" cy="231.7" r="9.2"/>
		</g>
	</g>
</g>
<path class="st0" d="M1296,306.1c0-169-137-306-306-306c-169,0-306,137-306,306c0,169,137,306,306,306
	C1159,612.1,1296,475.1,1296,306.1z M711.8,306.1c0-153.6,124.5-278.2,278.2-278.2s278.2,124.5,278.2,278.2S1143.7,584.3,990,584.3
	S711.8,459.7,711.8,306.1z"/>
<path class="st0" d="M611.7,308.5c0-169-137-306-306-306c-169,0-306,137-306,306c0,169,137,306,306,306
	C474.7,614.5,611.7,477.5,611.7,308.5z M27.5,308.5C27.5,154.8,152,30.3,305.7,30.3s278.2,124.5,278.2,278.2
	S459.3,586.6,305.7,586.6S27.5,462.1,27.5,308.5z"/>
<g>
	<path class="st0" d="M454.5,377.7c-0.4-0.8-0.7-1.4-1-2c-5.2-9.4-15.2-20.9-29.9-34.6l-0.3-0.3l-0.2-0.2l-0.2-0.2h-0.2
		c-6.7-6.4-10.9-10.7-12.7-12.8c-3.2-4.2-4-8.4-2.2-12.7c1.3-3.2,6-10.1,14.1-20.5c4.3-5.5,7.7-10,10.2-13.3
		c18.1-24,25.9-39.4,23.5-46.1l-0.9-1.6c-0.6-0.9-2.2-1.8-4.9-2.6c-2.6-0.8-6-0.9-10-0.4l-45.1,0.3c-0.7-0.3-1.8-0.2-3.1,0.1
		c-1.4,0.3-2,0.5-2,0.5l-0.8,0.4l-0.6,0.5c-0.5,0.3-1.1,0.9-1.7,1.6c-0.6,0.8-1.1,1.7-1.6,2.7c-4.9,12.6-10.5,24.4-16.8,35.2
		c-3.9,6.5-7.4,12.1-10.7,16.8c-3.2,4.8-6,8.3-8.1,10.5c-2.2,2.2-4.2,4-6,5.4c-1.8,1.4-3.1,1.9-4.1,1.7c-0.9-0.2-1.8-0.4-2.7-0.6
		c-1.5-0.9-2.6-2.2-3.5-3.8c-0.9-1.6-1.5-3.7-1.8-6.1c-0.3-2.5-0.5-4.6-0.5-6.3c0-1.8,0-4.3,0.1-7.5c0.1-3.2,0.2-5.4,0.2-6.6
		c0-4,0.1-8.3,0.2-12.9c0.2-4.6,0.3-8.3,0.4-11c0.1-2.7,0.2-5.6,0.2-8.6s-0.2-5.4-0.5-7.1c-0.4-1.7-0.9-3.4-1.6-5
		c-0.7-1.6-1.8-2.9-3.2-3.8c-1.4-0.9-3.2-1.6-5.2-2.1c-5.5-1.3-12.6-1.9-21.1-2c-19.4-0.2-31.9,1-37.4,3.8c-2.2,1.1-4.2,2.7-6,4.7
		c-1.9,2.3-2.1,3.6-0.8,3.8c6.3,0.9,10.7,3.2,13.3,6.7l0.9,1.9c0.7,1.4,1.5,3.8,2.2,7.2c0.7,3.4,1.2,7.3,1.4,11.4
		c0.5,7.6,0.5,14.2,0,19.6c-0.5,5.4-1,9.7-1.5,12.7c-0.5,3-1.2,5.5-2.1,7.4c-0.9,1.9-1.6,3-1.9,3.4c-0.3,0.4-0.6,0.7-0.8,0.8
		c-1.4,0.5-2.8,0.8-4.2,0.8c-1.5,0-3.2-0.7-5.3-2.2c-2.1-1.5-4.3-3.5-6.5-6c-2.2-2.6-4.8-6.1-7.6-10.7c-2.8-4.6-5.7-10-8.8-16.3
		l-2.5-4.5c-1.6-2.9-3.7-7.2-6.4-12.8c-2.7-5.6-5.1-11-7.2-16.2c-0.8-2.2-2.1-3.9-3.8-5l-0.8-0.5c-0.5-0.4-1.4-0.9-2.5-1.3
		c-1.1-0.5-2.3-0.8-3.6-1l-42.9,0.3c-4.4,0-7.4,1-8.9,3l-0.6,0.9c-0.3,0.5-0.5,1.4-0.5,2.5c0,1.1,0.3,2.6,0.9,4.2
		c6.3,14.7,13.1,28.9,20.4,42.6c7.4,13.7,13.8,24.7,19.2,33c5.4,8.4,11,16.2,16.6,23.7c5.6,7.4,9.4,12.2,11.2,14.3
		c1.8,2.1,3.3,3.7,4.3,4.7l3.9,3.8c2.5,2.5,6.2,5.5,11,9c4.9,3.5,10.2,6.9,16.1,10.3c5.9,3.4,12.8,6.2,20.6,8.3
		c7.8,2.1,15.5,3,22.9,2.6h18c3.7-0.3,6.4-1.5,8.3-3.4l0.6-0.8c0.4-0.6,0.8-1.6,1.2-2.9c0.4-1.3,0.5-2.7,0.5-4.3
		c-0.1-4.5,0.2-8.5,1-12.1c0.8-3.6,1.7-6.3,2.7-8.1c1-1.8,2.1-3.4,3.4-4.6c1.3-1.3,2.1-2,2.7-2.3c0.5-0.3,0.9-0.4,1.2-0.5
		c2.5-0.8,5.5,0,8.9,2.4c3.4,2.5,6.6,5.5,9.6,9.1c3,3.6,6.6,7.6,10.7,12.1c4.2,4.5,7.8,7.8,11,10l3.1,1.9c2.1,1.3,4.8,2.4,8.1,3.4
		c3.3,1,6.3,1.3,8.8,0.8l40.1-0.6c4,0,7.1-0.7,9.2-2c2.2-1.3,3.5-2.7,3.9-4.3c0.4-1.6,0.4-3.3,0.1-5.3
		C455.2,379.8,454.9,378.4,454.5,377.7z"/>
</g>
<g>
	<path id="YouTube" class="st0" d="M1069.8,370.2h-15.2l0.1-8.8c0-3.9,3.2-7.1,7.2-7.1h1c3.9,0,7.2,3.2,7.2,7.1L1069.8,370.2z
		 M1012.8,351.3c-3.9,0-7,2.6-7,5.8V400c0,3.2,3.2,5.8,7,5.8c3.9,0,7-2.6,7-5.8V357C1019.9,353.9,1016.7,351.3,1012.8,351.3z
		 M1105.4,327.3v81.7c0,19.6-17,35.6-37.8,35.6H912.4c-20.8,0-37.8-16-37.8-35.6v-81.7c0-19.6,17-35.6,37.8-35.6h155.3
		C1088.4,291.6,1105.4,307.7,1105.4,327.3z M922.8,417.8l0-86l19.2,0V319l-51.3-0.1v12.5l16,0v86.3H922.8z M980.4,344.6h-16v45.9
		c0,6.6,0.4,10,0,11.1c-1.3,3.6-7.2,7.3-9.5,0.4c-0.4-1.2,0-4.9-0.1-11.2l-0.1-46.3h-16l0,45.5c0,7-0.2,12.2,0.1,14.5
		c0.4,4.2,0.3,9,4.1,11.8c7.2,5.2,21.1-0.8,24.5-8.2l0,9.5l12.9,0L980.4,344.6L980.4,344.6z M1031.8,397.2l0-38.2
		c0-14.6-10.9-23.3-25.7-11.5l0.1-28.4l-16,0l-0.1,98.1l13.2-0.2l1.2-6.1C1021.2,426.3,1031.8,415.7,1031.8,397.2z M1082,392.1
		l-12,0.1c0,0.5,0,1,0,1.6v6.7c0,3.6-3,6.5-6.6,6.5h-2.4c-3.6,0-6.6-2.9-6.6-6.5v-0.7v-7.4v-9.5h27.5v-10.4c0-7.6-0.2-15.2-0.8-19.5
		c-2-13.7-21.2-15.9-30.9-8.9c-3,2.2-5.4,5.1-6.7,9.1c-1.4,3.9-2,9.3-2,16.2v22.8C1041.4,430.1,1087.5,424.7,1082,392.1z
		 M1020.3,268.3c0.8,2,2.1,3.6,3.9,4.9c1.7,1.2,3.9,1.8,6.6,1.8c2.3,0,4.4-0.6,6.1-1.9c1.8-1.3,3.3-3.2,4.5-5.8l-0.3,6.3h17.9v-76.1
		h-14.1v59.2c0,3.2-2.6,5.8-5.9,5.8c-3.2,0-5.9-2.6-5.9-5.8v-59.2h-14.7v51.3c0,6.5,0.1,10.9,0.3,13.1
		C1018.9,264.2,1019.4,266.3,1020.3,268.3z M966.1,225.4c0-7.3,0.6-13,1.8-17.1c1.2-4.1,3.4-7.4,6.6-9.9c3.2-2.5,7.2-3.7,12.1-3.7
		c4.1,0,7.7,0.8,10.6,2.4c3,1.6,5.3,3.7,6.9,6.2c1.6,2.6,2.7,5.2,3.3,7.9c0.6,2.7,0.9,6.9,0.9,12.5v19.2c0,7.1-0.3,12.2-0.8,15.5
		c-0.5,3.3-1.7,6.4-3.5,9.2c-1.8,2.8-4.1,5-6.9,6.3c-2.8,1.4-6.1,2-9.7,2c-4.1,0-7.5-0.6-10.3-1.7c-2.8-1.2-5-2.9-6.6-5.3
		c-1.6-2.3-2.7-5.2-3.4-8.5c-0.7-3.3-1-8.3-1-15L966.1,225.4L966.1,225.4z M980.1,255.6c0,4.3,3.2,7.8,7.1,7.8
		c3.9,0,7.1-3.5,7.1-7.8v-40.5c0-4.3-3.2-7.8-7.1-7.8c-3.9,0-7.1,3.5-7.1,7.8V255.6z M930.6,276h16.9l0-58.3l19.9-50H949l-10.6,37.1
		l-10.8-37.2h-18.3l21.2,50.1L930.6,276z"/>
</g>
</svg>
