<?xml version="1.0" encoding="iso-8859-1"?>
<!-- Generator: Adobe Illustrator 19.0.0, SVG Export Plug-In . SVG Version: 6.00 Build 0)  -->
<svg xmlns="http://www.w3.org/2000/svg" xmlns:xlink="http://www.w3.org/1999/xlink" version="1.1" id="Capa_1" x="0px" y="0px" viewBox="0 0 512 512" style="enable-background:new 0 0 512 512;" xml:space="preserve" width="512px" height="512px">
<g>
	<g>
		<g>
			<path d="M404,148C404,66.393,337.607,0,256,0S108,66.393,108,148c0,50.548,25.479,95.251,64.261,121.963     c-36.21,12.494-69.398,33.135-97.281,61.018C26.628,379.333,0,443.62,0,512h40c0-119.103,96.897-216,216-216     C337.607,296,404,229.607,404,148z M148,148c0-59.552,48.449-108,108-108c59.551,0,108,48.448,108,108s-48.449,108-108,108     C196.449,256,148,207.552,148,148z" fill="#FFFFFF"/>
			<path d="M412,312c-31.55,0-61.22,15.072-79.972,40H208.716L158,402.716v19.721L208.868,472h123.16     c18.752,24.928,48.422,40,79.972,40c55.14,0,100-44.859,100-100S467.14,312,412,312z M412,472     c-21.335,0-41.246-11.502-51.961-30.018L354.262,432h-45.54l-28.947-27.5L253.65,432h-28.518l-20.183-19.665L225.284,392h128.979     l5.777-9.982C370.755,363.502,390.665,352,412,352c33.084,0,60,26.916,60,60S445.084,472,412,472z" fill="#FFFFFF"/>
			<circle cx="432" cy="412" r="20" fill="#FFFFFF"/>
		</g>
	</g>
</g>
<g>
</g>
<g>
</g>
<g>
</g>
<g>
</g>
<g>
</g>
<g>
</g>
<g>
</g>
<g>
</g>
<g>
</g>
<g>
</g>
<g>
</g>
<g>
</g>
<g>
</g>
<g>
</g>
<g>
</g>
</svg>
