<svg xmlns="http://www.w3.org/2000/svg" viewBox="0 0 612 612"><defs><style>.cls-1{fill:#fff;}</style></defs><title>vk</title><g id="Layer_2" data-name="Layer 2"><g id="Capa_1" data-name="Capa 1"><path class="cls-1" d="M612,306C612,137,475,0,306,0S0,137,0,306,137,612,306,612,612,475,612,306ZM27.82,306C27.82,152.36,152.36,27.82,306,27.82S584.18,152.36,584.18,306,459.64,584.18,306,584.18,27.82,459.64,27.82,306Z"/><path class="cls-1" d="M454.83,375.19a20.61,20.61,0,0,0-1-2q-7.83-14.1-29.92-34.62l-.31-.31-.16-.15-.16-.16h-.16q-10-9.56-12.69-12.85-4.86-6.27-2.2-12.69,1.88-4.86,14.1-20.52,6.42-8.3,10.18-13.31,27.1-36,23.5-46.05l-.93-1.56q-.94-1.41-4.85-2.59a24.66,24.66,0,0,0-10-.39l-45.11.31a5.85,5.85,0,0,0-3.13.08l-2,.47-.79.39-.62.47a7,7,0,0,0-1.72,1.64,10.75,10.75,0,0,0-1.56,2.74,255.78,255.78,0,0,1-16.76,35.24q-5.8,9.71-10.65,16.84a81,81,0,0,1-8.14,10.49,56.82,56.82,0,0,1-6,5.4q-2.66,2-4.07,1.72c-.94-.21-1.83-.42-2.67-.63a10.42,10.42,0,0,1-3.52-3.84,17.19,17.19,0,0,1-1.8-6.11q-.47-3.68-.55-6.34t.08-7.52q.16-4.86.16-6.58,0-6,.23-12.92t.39-11q.16-4.07.16-8.62a36.2,36.2,0,0,0-.55-7.13,24.38,24.38,0,0,0-1.64-5,8.44,8.44,0,0,0-3.21-3.76,18.1,18.1,0,0,0-5.25-2.12,104.23,104.23,0,0,0-21.15-2q-29.13-.31-37.44,3.76a21.1,21.1,0,0,0-6,4.7q-2.82,3.45-.79,3.76,9.4,1.41,13.31,6.73l.94,1.88a30,30,0,0,1,2.19,7.21A72.7,72.7,0,0,1,274,259.67a121.93,121.93,0,0,1,0,19.58q-.78,8.15-1.49,12.69a25.41,25.41,0,0,1-2.12,7.36,31.06,31.06,0,0,1-1.88,3.45,2.7,2.7,0,0,1-.78.78,11.73,11.73,0,0,1-4.23.79q-2.19,0-5.33-2.19a37.58,37.58,0,0,1-6.5-6,80.62,80.62,0,0,1-7.6-10.73q-4.23-6.89-8.77-16.29l-2.51-4.54q-2.35-4.38-6.42-12.77t-7.21-16.21a10.33,10.33,0,0,0-3.76-5l-.78-.47a10.72,10.72,0,0,0-2.51-1.33,16.62,16.62,0,0,0-3.6-1L165.6,228q-6.58,0-8.93,3l-.63.94a5.07,5.07,0,0,0-.47,2.51,12.47,12.47,0,0,0,.94,4.23q9.4,22.09,20.44,42.61t19.19,33q8.14,12.53,16.6,23.65t11.2,14.25q2.74,3.14,4.31,4.7l3.92,3.76a92.93,92.93,0,0,0,11,9A188.38,188.38,0,0,0,259.35,380a87.53,87.53,0,0,0,20.6,8.3,71.23,71.23,0,0,0,22.87,2.59h18q5.48-.47,8.3-3.45l.62-.79a10.38,10.38,0,0,0,1.17-2.89,15.91,15.91,0,0,0,.55-4.31,51.62,51.62,0,0,1,1-12.14,31.91,31.91,0,0,1,2.67-8.15,20,20,0,0,1,3.37-4.62,13.61,13.61,0,0,1,2.67-2.27,10.22,10.22,0,0,1,1.25-.55q3.76-1.25,8.85,2.43a52,52,0,0,1,9.56,9.09q4.46,5.41,10.73,12.14a73.72,73.72,0,0,0,11,10l3.13,1.88a38.14,38.14,0,0,0,8.15,3.45,17.56,17.56,0,0,0,8.77.78l40.1-.63q5.95,0,9.24-2t3.92-4.31a12.13,12.13,0,0,0,.08-5.33A19.66,19.66,0,0,0,454.83,375.19Z"/></g></g></svg>