<svg xmlns="http://www.w3.org/2000/svg" viewBox="0 0 612 612"><defs><style>.cls-1{fill:#fff;}</style></defs><title>youtube</title><g id="Layer_2" data-name="Layer 2"><g id="Capa_1" data-name="Capa 1"><path class="cls-1" d="M612,306C612,137,475,0,306,0S0,137,0,306,137,612,306,612,612,475,612,306ZM27.82,306C27.82,152.36,152.36,27.82,306,27.82S584.18,152.36,584.18,306,459.64,584.18,306,584.18,27.82,459.64,27.82,306Z"/><path id="YouTube" class="cls-1" d="M385.81,370.09h-15.2l.07-8.83a7.17,7.17,0,0,1,7.16-7.13h1a7.18,7.18,0,0,1,7.17,7.13Zm-57-18.92c-3.86,0-7,2.59-7,5.76v42.93c0,3.17,3.15,5.75,7,5.75s7-2.58,7-5.75V356.94C335.84,353.77,332.68,351.18,328.81,351.18Zm92.57-24v81.67c0,19.59-17,35.62-37.75,35.62H228.38c-20.77,0-37.75-16-37.75-35.62V327.17c0-19.59,17-35.62,37.75-35.62H383.63C404.39,291.54,421.38,307.58,421.38,327.17ZM238.73,417.7v-86H258V318.93l-51.3-.08v12.53l16,0V417.7Zm57.69-73.21h-16v45.94c0,6.65.4,10,0,11.14-1.3,3.56-7.17,7.35-9.45.38-.39-1.22,0-4.9-.05-11.21l-.06-46.26h-16l0,45.53c0,7-.16,12.18.06,14.55.39,4.18.25,9,4.13,11.82,7.22,5.2,21.05-.78,24.52-8.21l0,9.49,12.89,0v-73.2Zm51.33,52.61,0-38.23c0-14.57-10.91-23.3-25.71-11.51l.06-28.43-16,0L306,417.07l13.18-.19,1.2-6.11C337.19,426.22,347.78,415.63,347.75,397.09ZM398,392l-12,.06c0,.48,0,1,0,1.63v6.71a6.57,6.57,0,0,1-6.58,6.52H377a6.57,6.57,0,0,1-6.58-6.52V382.77h27.55V372.41c0-7.58-.19-15.15-.82-19.49-2-13.7-21.21-15.88-30.92-8.86a18.11,18.11,0,0,0-6.73,9.06q-2,5.91-2,16.17v22.8C357.42,430,403.46,424.62,398,392ZM336.25,268.25a10.92,10.92,0,0,0,3.86,4.87,11.18,11.18,0,0,0,6.57,1.82,10.21,10.21,0,0,0,6.15-1.91,14.74,14.74,0,0,0,4.5-5.76l-.3,6.3h17.89V197.51H360.83v59.2a5.86,5.86,0,0,1-11.73,0v-59.2H334.41v51.3c0,6.54.12,10.89.31,13.1A22.05,22.05,0,0,0,336.25,268.25Zm-54.2-43q0-11,1.82-17.11a19.09,19.09,0,0,1,6.58-9.87q4.74-3.74,12.13-3.74a22.18,22.18,0,0,1,10.64,2.4,17.73,17.73,0,0,1,6.86,6.24,24.62,24.62,0,0,1,3.31,7.92,63.16,63.16,0,0,1,.9,12.45v19.24a104.14,104.14,0,0,1-.83,15.54,24.63,24.63,0,0,1-3.53,9.24,16.72,16.72,0,0,1-6.88,6.33,22,22,0,0,1-9.7,2A27,27,0,0,1,293,274.23a14.19,14.19,0,0,1-6.6-5.27,23.41,23.41,0,0,1-3.36-8.53,82.19,82.19,0,0,1-1-15V225.3Zm14,30.21c0,4.31,3.21,7.82,7.11,7.82s7.1-3.52,7.1-7.82V215c0-4.3-3.19-7.82-7.1-7.82s-7.11,3.52-7.11,7.82ZM246.56,276h16.87l0-58.34,19.94-50H264.94l-10.6,37.12-10.75-37.22H225.32l21.21,50.1Z"/></g></g></svg>