<svg xmlns="http://www.w3.org/2000/svg" xmlns:xlink="http://www.w3.org/1999/xlink" viewBox="0 0 622.33 387.68"><defs><style>.cls-1{isolation:isolate;}.cls-2{fill-rule:evenodd;fill:url(#linear-gradient);}.cls-3{opacity:0.6;fill:url(#linear-gradient-2);}.cls-4{fill:url(#linear-gradient-3);}.cls-5{mix-blend-mode:multiply;fill:url(#linear-gradient-4);}.cls-6{fill:#fff;}.cls-7{fill:#e21a1a;}.cls-8{fill:#ffbf3e;}</style><linearGradient id="linear-gradient" x1="195.76" y1="488.05" x2="432.6" y2="-115.72" gradientUnits="userSpaceOnUse"><stop offset="0" stop-color="#1d5c6f"/><stop offset="1" stop-color="#404040"/></linearGradient><linearGradient id="linear-gradient-2" x1="136.09" y1="262.59" x2="479.13" y2="166.02" gradientUnits="userSpaceOnUse"><stop offset="0" stop-color="#37606c"/><stop offset="0.25" stop-color="#395d67"/><stop offset="1" stop-color="#3d555c"/></linearGradient><linearGradient id="linear-gradient-3" x1="99.42" y1="5.44" x2="99.42" y2="170.94" gradientUnits="userSpaceOnUse"><stop offset="0" stop-color="#ffca3f"/><stop offset="0.1" stop-color="#ca7c22"/><stop offset="0.19" stop-color="#fddb7a"/><stop offset="0.42" stop-color="#ffad45"/><stop offset="0.55" stop-color="#a95f0d"/><stop offset="0.66" stop-color="#ffad45"/><stop offset="0.79" stop-color="#ffff9b"/><stop offset="0.87" stop-color="#ffed7c"/><stop offset="1" stop-color="#ffca3f"/></linearGradient><linearGradient id="linear-gradient-4" x1="99.42" y1="-34.67" x2="99.42" y2="172.54" xlink:href="#linear-gradient-3"/></defs><title>Credit card_front</title><g class="cls-1"><g id="Layer_2" data-name="Layer 2"><g id="Layer_1-2" data-name="Layer 1"><path class="cls-2" d="M622.33,363.88a23.8,23.8,0,0,1-23.81,23.8H23.8A23.8,23.8,0,0,1,0,363.88V23.8A23.8,23.8,0,0,1,23.8,0H598.52a23.8,23.8,0,0,1,23.81,23.8Z"/><path class="cls-3" d="M604.53,1.07a23.69,23.69,0,0,0-4.65-.95A24,24,0,0,0,597.45,0H159.84L390.21,387.68H597.45a24,24,0,0,0,2.43-.12,23.78,23.78,0,0,0,21.37-23.68V23.8A23.78,23.78,0,0,0,604.53,1.07Z"/><path class="cls-4" d="M69.85,23.1H129A11.82,11.82,0,0,1,140.8,34.92v42A11.82,11.82,0,0,1,129,88.7H69.86A11.83,11.83,0,0,1,58,76.87V34.93A11.82,11.82,0,0,1,69.85,23.1Z"/><path class="cls-5" d="M140.8,43.77V42.26H125.64V23.1h-1.51V42.26H111.84a13.56,13.56,0,0,0-11.67-9.44V23.1H98.66v9.61A13.57,13.57,0,0,0,86,42.26H74.81V23.1H73.29V42.26H58v1.51H73.29V65.23H58v1.52H73.29V88.7h1.51V66.75H85.64a13.62,13.62,0,0,0,13,10.57V88.7h1.51V77.21a13.6,13.6,0,0,0,12-10.46h12V88.7h1.51V66.75H140.8V65.23h-9V43.77ZM85.43,65.23H74.81V43.77H85.53a13.69,13.69,0,0,0-.25,2.54A13.53,13.53,0,0,0,88.47,55a13.53,13.53,0,0,0-3.19,8.7A13.48,13.48,0,0,0,85.43,65.23ZM98.9,75.83A12.07,12.07,0,0,1,90,55.52L90.5,55,90,54.5a12.11,12.11,0,1,1,17.74,0l-.48.51.48.51a12.07,12.07,0,0,1-8.87,20.3Zm31.35-10.6H112.37a13.48,13.48,0,0,0,.15-1.52,13.53,13.53,0,0,0-3.19-8.7,13.53,13.53,0,0,0,3.19-8.7,13.67,13.67,0,0,0-.25-2.54h18Z"/><path class="cls-6" d="M170.34,71.51A7.83,7.83,0,0,1,161,69.68q-2.5-2.66-2.51-11.09,0-9.14,2.51-12.31A7.51,7.51,0,0,1,167,43.12a15.39,15.39,0,0,1,3.3.45V47a6.63,6.63,0,0,0-2.43-.51,4.58,4.58,0,0,0-3.81,2.26q-1.58,2.27-1.58,8.94a43.23,43.23,0,0,0,.35,6.21,6.51,6.51,0,0,0,1.59,3.57,4.12,4.12,0,0,0,3.14,1.33,7.35,7.35,0,0,0,2.75-.69Z"/><path class="cls-6" d="M183.18,55.39a5.88,5.88,0,0,0-3.59,1q-1.07.89-1.07,4V72h-3.7V52.52h3.7v2.87h.09c1.07-2.11,2.51-3.16,4.32-3.16l.25,0Z"/><path class="cls-6" d="M198,62.9h-8.2a19.92,19.92,0,0,0,.43,4.78,2,2,0,0,0,2.07,1.62,1.7,1.7,0,0,0,1.69-.94,7.41,7.41,0,0,0,.47-2.95h3.32q-.16,6.85-5.8,6.85-6.06,0-6.06-9.59,0-10.45,6.28-10.45a5.44,5.44,0,0,1,4.09,1.8q1.7,1.8,1.71,7.47Zm-3.68-2.83a13,13,0,0,0-.47-4.16,1.7,1.7,0,0,0-1.69-1.26A1.83,1.83,0,0,0,190.3,56a13.54,13.54,0,0,0-.46,4.09Z"/><path class="cls-6" d="M211.08,42.6h3.63V72h-3.59V69.39H211q-1.32,2.87-3.75,2.88a4.09,4.09,0,0,1-2.62-1A5,5,0,0,1,203,68.64a24.46,24.46,0,0,1-.47-5.73,37,37,0,0,1,.4-6.54,5.76,5.76,0,0,1,1.54-3.08,4,4,0,0,1,2.9-1.1q2.3,0,3.62,2.6h.09Zm0,19.35a19.81,19.81,0,0,0-.46-5.12,1.83,1.83,0,0,0-1.84-1.51,1.94,1.94,0,0,0-1.9,1.58,18.91,18.91,0,0,0-.51,5.24,21.4,21.4,0,0,0,.48,5.4c.32,1.08.93,1.62,1.84,1.62s1.51-.56,1.86-1.68A20.76,20.76,0,0,0,211.12,61.95Z"/><path class="cls-6" d="M219.39,46.57a1.94,1.94,0,0,1,.6-1.4,2,2,0,0,1,2.83,0,1.93,1.93,0,0,1,.59,1.4A2,2,0,0,1,220,48,2,2,0,0,1,219.39,46.57Zm.18,6h3.61V72h-3.61Z"/><path class="cls-6" d="M235,55.39h-2.34V72H229V55.39h-2.34V52.52H229V47.22h3.65v5.31H235Z"/><path class="cls-6" d="M258.93,71.51a7.82,7.82,0,0,1-9.37-1.83Q247,67,247,58.59q0-9.14,2.51-12.31a7.5,7.5,0,0,1,6.07-3.17,15.34,15.34,0,0,1,3.3.45V47a6.63,6.63,0,0,0-2.43-.51,4.57,4.57,0,0,0-3.81,2.26q-1.59,2.27-1.59,8.94a43.18,43.18,0,0,0,.35,6.21A6.51,6.51,0,0,0,253,67.51a4.12,4.12,0,0,0,3.14,1.33,7.32,7.32,0,0,0,2.74-.69Z"/><path class="cls-6" d="M275.31,72h-3.65V69.64h-.11c-.94,1.75-2.14,2.63-3.62,2.63a4.23,4.23,0,0,1-3.34-1.77q-1.44-1.77-1.44-7.94,0-5.49,1.09-7.9A3.8,3.8,0,0,1,268,52.23a3.25,3.25,0,0,1,2,.58,6.91,6.91,0,0,1,1.57,1.85h.11V52.52h3.65Zm-6-2.92c.93,0,1.54-.56,1.85-1.67a23.89,23.89,0,0,0,.47-5.68,20.09,20.09,0,0,0-.42-5,1.74,1.74,0,0,0-1.76-1.44,1.88,1.88,0,0,0-1.87,1.34,15.17,15.17,0,0,0-.52,4.84,28.73,28.73,0,0,0,.41,5.85Q267.9,69.08,269.34,69.08Z"/><path class="cls-6" d="M288.44,55.39a5.88,5.88,0,0,0-3.59,1q-1.07.89-1.07,4V72h-3.7V52.52h3.7v2.87h.09q1.61-3.16,4.32-3.16l.25,0Z"/><path class="cls-6" d="M299.67,42.6h3.63V72h-3.59V69.39h-.09c-.87,1.92-2.13,2.88-3.75,2.88a4.09,4.09,0,0,1-2.62-1,5,5,0,0,1-1.66-2.67,24.57,24.57,0,0,1-.46-5.73,37.15,37.15,0,0,1,.4-6.54,5.8,5.8,0,0,1,1.54-3.08,4,4,0,0,1,2.9-1.1q2.29,0,3.61,2.6h.09Zm0,19.35a19.88,19.88,0,0,0-.45-5.12,1.83,1.83,0,0,0-1.84-1.51,1.94,1.94,0,0,0-1.89,1.58,18.83,18.83,0,0,0-.51,5.24,21.39,21.39,0,0,0,.48,5.4q.48,1.61,1.84,1.62c.89,0,1.51-.56,1.86-1.68A20.78,20.78,0,0,0,299.71,61.95Z"/><polygon class="cls-6" points="446.21 49.37 442.4 71.73 448.5 71.73 452.31 49.37 446.21 49.37"/><path class="cls-6" d="M437.29,49.4l-6,15.25-.64-2.3c-1.18-2.77-4.52-6.76-8.44-9.27l5.46,18.65h6.45l9.6-22.32Z"/><path class="cls-6" d="M428.37,51c-.35-1.36-1.38-1.77-2.66-1.82h-9.45l-.08.45c7.35,1.78,12.22,6.08,14.24,11.25Z"/><path class="cls-6" d="M464.66,53.66a11.25,11.25,0,0,1,4.56.86l.55.26.82-4.85a15.73,15.73,0,0,0-5.46-.94c-6,0-10.27,3-10.3,7.38,0,3.21,3,5,5.34,6.08s3.17,1.8,3.16,2.77c0,1.5-1.89,2.18-3.64,2.18A12.79,12.79,0,0,1,454,66.23l-.79-.36-.86,5a19.3,19.3,0,0,0,6.79,1.19c6.41,0,10.57-3,10.62-7.64,0-2.54-1.6-4.48-5.12-6.07-2.13-1-3.44-1.73-3.42-2.77S462.28,53.66,464.66,53.66Z"/><path class="cls-6" d="M486.24,49.4h-4.71a3,3,0,0,0-3.19,1.86l-9.05,20.5h6.4s1-2.76,1.28-3.36h7.81c.18.78.74,3.35.74,3.35h5.65Zm-7.52,14.42,2.43-6.25c0,.06.5-1.29.81-2.14l.41,1.93,1.41,6.46Z"/><path class="cls-7" d="M541.29,60.43a18.06,18.06,0,1,1-18.06-18.07A18.07,18.07,0,0,1,541.29,60.43Z"/><path class="cls-8" d="M544.92,42.36a18,18,0,0,0-10.8,3.6h0a15.48,15.48,0,0,1,1.75,1.64l-3.76.06a18.58,18.58,0,0,0-1.63,1.91h6.63a16.79,16.79,0,0,1,1.39,1.8H529.3a18,18,0,0,0-.92,1.8h11.2a15.39,15.39,0,0,1,.78,1.74H527.72a17.4,17.4,0,0,0-.5,1.91h13.67c.13.63.24,1.2.31,1.79H526.94c-.06.59-.09,1.2-.09,1.81h14.44a15.87,15.87,0,0,1-.11,1.81H526.94q.09.92.27,1.81h13.65c-.14.59-.3,1.17-.51,1.79H527.67a17.54,17.54,0,0,0,.68,1.8h11.22a16.46,16.46,0,0,1-1.05,1.8h-9.25a17.58,17.58,0,0,0,1.21,1.81l6.66.1a17.59,17.59,0,0,1-2,1.69s-1.06,0-3.22,0a18.07,18.07,0,1,0,13-30.64Z"/></g></g></g></svg>