<svg xmlns="http://www.w3.org/2000/svg" xmlns:xlink="http://www.w3.org/1999/xlink" viewBox="0 0 622.33 387.68"><defs><style>.cls-1{fill-rule:evenodd;fill:url(#linear-gradient);}.cls-2{opacity:0.6;fill:url(#linear-gradient-2);}</style><linearGradient id="linear-gradient" x1="195.76" y1="488.05" x2="432.6" y2="-115.72" gradientUnits="userSpaceOnUse"><stop offset="0" stop-color="#1d5c6f"/><stop offset="1" stop-color="#404040"/></linearGradient><linearGradient id="linear-gradient-2" x1="137.17" y1="262.59" x2="480.21" y2="166.02" gradientUnits="userSpaceOnUse"><stop offset="0" stop-color="#37606c"/><stop offset="0.25" stop-color="#395d67"/><stop offset="1" stop-color="#3d555c"/></linearGradient></defs><title>Credit cart_back</title><g id="Layer_2" data-name="Layer 2"><g id="Layer_1-2" data-name="Layer 1"><path class="cls-1" d="M622.33,363.88a23.8,23.8,0,0,1-23.81,23.8H23.8A23.8,23.8,0,0,1,0,363.88V23.8A23.8,23.8,0,0,1,23.8,0H598.52a23.8,23.8,0,0,1,23.81,23.8Z"/><rect y="35.97" width="622.25" height="94.2"/><path class="cls-2" d="M605.6,1.07A23.69,23.69,0,0,0,601,.12,24,24,0,0,0,598.52,0H160.92L391.28,387.68H598.52a24,24,0,0,0,2.43-.12,23.78,23.78,0,0,0,21.37-23.68V23.8A23.78,23.78,0,0,0,605.6,1.07Z"/></g></g></svg>